<svg xmlns:mydata="http://www.w3.org/2000/svg" mydata:contrastcolor="FFFFFF" mydata:template="Contrast" mydata:presentation="2.5" mydata:layouttype="undefined" mydata:specialfontid="undefined" mydata:id1="164" mydata:id2="659" mydata:companyname="Playgrounddd" mydata:companytagline="" version="1.1" xmlns="http://www.w3.org/2000/svg" xmlns:xlink="http://www.w3.org/1999/xlink" viewBox="200 140 160 130">
  <g fill="#ff5e00" fill-rule="none" stroke="none" stroke-width="1" stroke-linecap="butt" stroke-linejoin="miter" stroke-miterlimit="10" stroke-dasharray="" stroke-dashoffset="0" font-family="none" font-weight="none" font-size="none" text-anchor="none" style="mix-blend-mode: normal">
    <g data-paper-data="{&quot;isGlobalGroup&quot;:true,&quot;bounds&quot;:{&quot;x&quot;:65,&quot;y&quot;:142.7699114064191,&quot;width&quot;:420,&quot;height&quot;:184.46017718716183}}">
      <g data-paper-data="{&quot;isIcon&quot;:&quot;true&quot;,&quot;iconType&quot;:&quot;icon&quot;,&quot;rawIconId&quot;:&quot;1nawWb3e_gMrOee_v2bpVYqM94BlubDJzcrYztw1Af&quot;,&quot;source&quot;:&quot;ai&quot;,&quot;selectedEffects&quot;:{&quot;container&quot;:&quot;&quot;,&quot;transformation&quot;:&quot;&quot;,&quot;pattern&quot;:&quot;&quot;},&quot;isDetailed&quot;:false,&quot;iconStyle&quot;:&quot;standalone&quot;,&quot;bounds&quot;:{&quot;x&quot;:202.0213833258827,&quot;y&quot;:142.7699114064191,&quot;width&quot;:145.95723334823464,&quot;height&quot;:121.76870913626391},&quot;fillRule&quot;:&quot;evenodd&quot;,&quot;suitableAsStandaloneIcon&quot;:true}" fill-rule="evenodd">
        <path d="M240.75479,158.01935c0,-0.573 2.62666,-3.87108 6.45775,-8.10784l6.45775,-7.14161h7.59776c5.9546,0 7.51907,0.12838 7.23457,0.59438c-0.19898,0.32715 -1.23009,1.66426 -2.28999,2.9719c-1.0599,1.30766 -2.52118,3.70372 -3.24726,5.3247c-4.92606,10.99939 1.524,23.61978 13.17264,25.77294c2.92484,0.54049 3.59334,0.47578 8.0687,-0.78138l2.79685,-0.78537l1.18305,1.37548c1.03339,1.20129 1.15084,1.69191 0.92649,3.86587c-0.1414,1.36949 -0.6112,3.23586 -1.04394,4.14781c-0.72608,1.53027 -11.70395,14.16241 -22.52416,25.91824l-4.53294,4.92492l-0.59153,-1.70901c-1.51117,-4.36446 -6.63763,-9.60267 -11.01065,-11.25097c-2.24438,-0.84581 -3.44852,-0.98806 -6.99084,-0.82642c-5.23678,0.23889 -8.64112,1.68678 -12.10125,5.14642c-3.13215,3.1321 -4.66182,6.43323 -5.28046,11.39379c-0.27723,2.22129 -0.8022,4.49731 -1.16643,5.05633c-0.88729,1.36236 -4.54343,2.54912 -7.85105,2.54912c-3.32377,0 -7.74266,-2.04511 -10.01794,-4.63642c-2.80405,-3.19367 -3.95477,-6.45946 -3.97902,-11.29287c-0.01949,-3.82795 0.13362,-4.60564 1.45171,-7.37027c1.84402,-3.86844 3.4203,-5.84684 12.83434,-16.11259c11.37027,-12.39867 13.12917,-14.34058 13.77825,-14.02215c0.13455,0.06556 0.22158,0.22863 0.33615,0.41564c0.32111,0.52311 1.57543,1.94419 2.78756,3.15889c1.68706,1.68934 2.75067,2.32477 4.5338,2.70705c4.13355,0.88629 7.89424,-0.61718 10.37351,-4.14837c1.24691,-1.77572 1.43277,-2.4522 1.43135,-5.20776c-0.00199,-2.5668 -0.24117,-3.57199 -1.26145,-5.30663c-1.36949,-2.32762 -3.11414,-3.81119 -5.80494,-4.93527c-1.18362,-0.49455 -1.7284,-1.02709 -1.7284,-1.68851zM271.51897,147.99714c2.53372,-2.3157 5.74593,-4.14022 8.40907,-4.77598c0.81503,-0.19448 9.82731,-0.36899 20.02692,-0.38753c16.31984,-0.02948 18.93224,-0.04232 20.03548,1.24106c0.21808,0.25345 0.37687,0.55777 0.57157,0.92248c0.70641,1.32713 0.75231,37.39407 0.05331,42.23204c-0.61034,4.2225 -1.96871,7.02647 -4.75701,9.81762c-3.32993,3.33336 -4.79378,3.95966 -9.24633,3.95681c-3.19567,-0.00257 -4.19114,-0.20554 -6.22428,-1.27057c-2.83534,-1.48552 -4.82486,-3.60731 -6.41898,-6.84545c-1.0636,-2.16114 -1.1363,-2.78402 -1.01116,-8.61718c0.15166,-7.04728 -0.36005,-8.82157 -3.24156,-11.24669c-2.03856,-1.71443 -3.25154,-1.91994 -6.19149,-1.0465c-6.34999,1.88547 -11.88382,0.12429 -15.16245,-4.82537c-3.91719,-5.9148 -2.603,-13.89042 3.15689,-19.15475zM325.01457,188.27287c0.66764,-4.99134 1.57674,-6.33517 4.91437,-7.26336c6.49196,-1.80537 13.74107,1.78256 16.80617,8.31899c1.0562,2.25093 1.24548,3.30855 1.24349,6.93582c-0.00285,4.92577 -0.88543,8.01539 -3.22673,11.30028c-1.27998,1.79511 -9.075,10.4864 -21.7348,24.23346l-2.61525,2.8399l-2.00007,-1.91113c-2.54171,-2.42796 -5.92011,-3.33706 -9.17678,-2.4693c-2.89548,0.77141 -6.24679,4.2205 -7.11513,7.32181c-1.24007,4.42946 0.98635,9.62377 5.18205,12.09022c1.92253,1.13031 2.80369,1.30535 7.64137,1.51544l5.46855,0.23775l0.13484,5.4084c0.10661,4.2644 -0.02138,5.647 -0.60521,6.53814l-0.74033,1.12975h-38.5749l1.93336,-2.19677c5.71998,-6.49766 7.28475,-14.66984 4.15836,-21.71855c-1.70531,-3.84364 -5.89588,-7.95153 -9.47981,-9.29251c-3.25126,-1.21669 -9.01485,-1.36693 -11.97676,-0.31215c-1.652,0.58811 -2.03199,0.58411 -2.97217,-0.03193c-1.5468,-1.01343 -1.54994,-5.84827 -0.0057,-8.37373c0.98065,-1.60296 23.23228,-26.60298 25.46526,-28.61075c0.95642,-0.85921 0.98778,-0.84638 1.77715,0.71325c3.78833,7.48743 10.79998,11.72789 18.56678,11.22958c8.91337,-0.57185 15.57751,-7.51195 16.93189,-17.6326zM233.01762,211.69729c2.15544,-2.39775 4.79549,-4.08224 7.49941,-4.78608c3.7507,-0.97666 9.84128,1.02341 12.56515,4.12585c3.17343,3.61443 3.5999,5.03723 3.6227,12.09307c0.02052,6.18265 0.00542,7.74457 0.67619,8.91251c0.25115,0.43645 0.5978,0.81787 1.07843,1.36521c2.33161,2.6546 3.98246,3.18141 7.08548,2.26005c10.10612,-3.00096 18.61952,3.48302 17.89373,13.62733c-0.41592,5.81748 -3.93172,10.76463 -9.64258,13.56803l-2.84702,1.39799l-19.85418,0.13854l-19.85418,0.13883l-2.42651,-2.42654l0.1626,-21.74962c0.1845,-24.68672 0.13222,-24.31784 4.04076,-28.6652z" data-paper-data="{&quot;isPathIcon&quot;:true}"/>
      </g>
    </g>
  </g>
</svg>
